[Header]
FileType HTR
DataType HTRS
FileVersion 1
NumSegments 64
NumFrames 4
DataFrameRate 24
EulerRotationOrder ZYX
CalibrationUnits mm
RotationUnits Degrees
GlobalAxisofGravity Y
BoneLengthAxis Y
ScaleFactor 1.0
[SegmentNames&Hierarchy]
Hips	GLOBAL
Spine	Hips
Spine1	Spine
Spine2	Spine1
Neck	Spine2
Head	Neck
LeftEye	Head
RightEye	Head
LeftShoulder	Spine2
LeftArm	LeftShoulder
LeftForeArm	LeftArm
LeftHand	LeftForeArm
LeftHandThumb1	LeftHand
LeftHandThumb2	LeftHandThumb1
LeftHandThumb3	LeftHandThumb2
LeftHandThumb4	LeftHandThumb3
LeftHandIndex1	LeftHand
LeftHandIndex2	LeftHandIndex1
LeftHandIndex3	LeftHandIndex2
LeftHandIndex4	LeftHandIndex3
LeftHandMiddle1	LeftHand
LeftHandMiddle2	LeftHandMiddle1
LeftHandMiddle3	LeftHandMiddle2
LeftHandMiddle4	LeftHandMiddle3
LeftHandRing1	LeftHand
LeftHandRing2	LeftHandRing1
LeftHandRing3	LeftHandRing2
LeftHandRing4	LeftHandRing3
LeftHandPinky1	LeftHand
LeftHandPinky2	LeftHandPinky1
LeftHandPinky3	LeftHandPinky2
LeftHandPinky4	LeftHandPinky3
RightShoulder	Spine2
RightArm	RightShoulder
RightForeArm	RightArm
RightHand	RightForeArm
RightHandPinky1	RightHand
RightHandPinky2	RightHandPinky1
RightHandPinky3	RightHandPinky2
RightHandPinky4	RightHandPinky3
RightHandRing1	RightHand
RightHandRing2	RightHandRing1
RightHandRing3	RightHandRing2
RightHandRing4	RightHandRing3
RightHandMiddle1	RightHand
RightHandMiddle2	RightHandMiddle1
RightHandMiddle3	RightHandMiddle2
RightHandMiddle4	RightHandMiddle3
RightHandIndex1	RightHand
RightHandIndex2	RightHandIndex1
RightHandIndex3	RightHandIndex2
RightHandIndex4	RightHandIndex3
RightHandThumb1	RightHand
RightHandThumb2	RightHandThumb1
RightHandThumb3	RightHandThumb2
RightHandThumb4	RightHandThumb3
LeftUpLeg	Hips
LeftLeg	LeftUpLeg
LeftFoot	LeftLeg
LeftToeBase	LeftFoot
RightUpLeg	Hips
RightLeg	RightUpLeg
RightFoot	RightLeg
RightToeBase	RightFoot
[BasePosition]
Hips	0	0	0	0	0	0	1
Spine	0	0	0	0	0	0	1
Spine1	0	0	0	0	0	0	1
Spine2	0	0	0	0	0	0	1
Neck	0	0	0	0	0	0	1
Head	0	0	0	0	0	0	1
LeftEye	0	0	0	0	0	0	1
RightEye	0	0	0	0	0	0	1
LeftShoulder	0	0	0	0	0	0	1
LeftArm	0	0	0	0	0	0	1
LeftForeArm	0	0	0	0	0	0	1
LeftHand	0	0	0	0	0	0	1
LeftHandThumb1	0	0	0	0	0	0	1
LeftHandThumb2	0	0	0	0	0	0	1
LeftHandThumb3	0	0	0	0	0	0	1
LeftHandThumb4	0	0	0	0	0	0	1
LeftHandIndex1	0	0	0	0	0	0	1
LeftHandIndex2	0	0	0	0	0	0	1
LeftHandIndex3	0	0	0	0	0	0	1
LeftHandIndex4	0	0	0	0	0	0	1
LeftHandMiddle1	0	0	0	0	0	0	1
LeftHandMiddle2	0	0	0	0	0	0	1
LeftHandMiddle3	0	0	0	0	0	0	1
LeftHandMiddle4	0	0	0	0	0	0	1
LeftHandRing1	0	0	0	0	0	0	1
LeftHandRing2	0	0	0	0	0	0	1
LeftHandRing3	0	0	0	0	0	0	1
LeftHandRing4	0	0	0	0	0	0	1
LeftHandPinky1	0	0	0	0	0	0	1
LeftHandPinky2	0	0	0	0	0	0	1
LeftHandPinky3	0	0	0	0	0	0	1
LeftHandPinky4	0	0	0	0	0	0	1
RightShoulder	0	0	0	0	0	0	1
RightArm	0	0	0	0	0	0	1
RightForeArm	0	0	0	0	0	0	1
RightHand	0	0	0	0	0	0	1
RightHandPinky1	0	0	0	0	0	0	1
RightHandPinky2	0	0	0	0	0	0	1
RightHandPinky3	0	0	0	0	0	0	1
RightHandPinky4	0	0	0	0	0	0	1
RightHandRing1	0	0	0	0	0	0	1
RightHandRing2	0	0	0	0	0	0	1
RightHandRing3	0	0	0	0	0	0	1
RightHandRing4	0	0	0	0	0	0	1
RightHandMiddle1	0	0	0	0	0	0	1
RightHandMiddle2	0	0	0	0	0	0	1
RightHandMiddle3	0	0	0	0	0	0	1
RightHandMiddle4	0	0	0	0	0	0	1
RightHandIndex1	0	0	0	0	0	0	1
RightHandIndex2	0	0	0	0	0	0	1
RightHandIndex3	0	0	0	0	0	0	1
RightHandIndex4	0	0	0	0	0	0	1
RightHandThumb1	0	0	0	0	0	0	1
RightHandThumb2	0	0	0	0	0	0	1
RightHandThumb3	0	0	0	0	0	0	1
RightHandThumb4	0	0	0	0	0	0	1
LeftUpLeg	0	0	0	0	0	0	1
LeftLeg	0	0	0	0	0	0	1
LeftFoot	0	0	0	0	0	0	1
LeftToeBase	0	0	0	0	0	0	1
RightUpLeg	0	0	0	0	0	0	1
RightLeg	0	0	0	0	0	0	1
RightFoot	0	0	0	0	0	0	1
RightToeBase	0	0	0	0	0	0	1
[Hips]
186	-337.9328918	990.739502	173.4594421	1.309533119	2.839336395	-6.205860138	1.0
187	-356.2560425	950.2263184	157.3744354	2.191148281	1.496610999	-6.56639719	1.0
188	-372.3114014	915.260498	144.8064423	3.592035294	-0.2118300796	-5.6009202	1.0
189	-378.2464294	898.5446167	141.4053345	3.991003036	1.000241995	-6.2978549	1.0
[Spine]
186	0	101.8159943	1.315000057	4.226316452	-5.333435535	3.120931387	1.0
187	0	101.8159943	1.315000057	6.400332451	-4.044445038	4.443321228	1.0
188	0	101.8159943	1.315000057	7.82537508	-2.447027683	3.474699497	1.0
189	0	101.8159943	1.315000057	8.509999275	-1.464642048	3.345339775	1.0
[Spine1]
186	0	100.8349991	-10.00800037	2.336855412	-0.7797963023	1.094036222	1.0
187	0	100.8349991	-10.00800037	3.055888891	-0.5814802647	0.9379292727	1.0
188	0	100.8349991	-10.00800037	3.251970053	-0.3535004556	0.5787482262	1.0
189	0	100.8349991	-10.00800037	3.348118544	-0.2158516943	0.2945633829	1.0
[Spine2]
186	0	91	-13.73399925	2.326563358	-0.7596749067	1.076218486	1.0
187	0	91	-13.73399925	3.043462753	-0.5639843345	0.921589911	1.0
188	0	91	-13.73399925	3.237133741	-0.3335871994	0.5704524517	1.0
189	0	91	-13.73399925	3.334554434	-0.1947937161	0.2936397791	1.0
[Neck]
186	0	166.7169952	-25.16200066	-1.231803894	-1.228542447	4.305125237	1.0
187	0	166.7169952	-25.16200066	-2.253522158	0.2558237612	3.218166828	1.0
188	0	166.7169952	-25.16200066	-3.471972466	1.519596815	1.051377535	1.0
189	0	166.7169952	-25.16200066	-5.407841206	1.326236248	-1.207963347	1.0
[Head]
186	0	96.17900085	16.84999847	-3.958089113	-0.05254977942	-1.944259882	1.0
187	0	96.17900085	16.84999847	-8.703489304	5.072880745	-5.653673172	1.0
188	0	96.17900085	16.84999847	-13.59047127	5.564799786	-5.842271328	1.0
189	0	96.17900085	16.84999847	-17.83818436	-1.211158991	-0.652104497	1.0
[LeftEye]
186	30.6760006	64.09500122	92.83599854	0	0	0	1.0
187	30.6760006	64.09500122	92.83599854	0	0	0	1.0
188	30.6760006	64.09500122	92.83599854	0	0	0	1.0
189	30.6760006	64.09500122	92.83599854	0	0	0	1.0
[RightEye]
186	-30.6760006	64.09500122	92.83499908	0	0	0	1.0
187	-30.6760006	64.09500122	92.83499908	0	0	0	1.0
188	-30.6760006	64.09500122	92.83499908	0	0	0	1.0
189	-30.6760006	64.09500122	92.83499908	0	0	0	1.0
[LeftShoulder]
186	45.70400238	109.4599991	-26.28000069	4.346514702	-19.27340508	-8.154573441	1.0
187	45.70400238	109.4599991	-26.28000069	3.879052401	-15.67148781	-4.939248085	1.0
188	45.70400238	109.4599991	-26.28000069	3.651154757	-12.16563797	-2.028609514	1.0
189	45.70400238	109.4599991	-26.28000069	3.414132833	-11.76286507	0.8231809139	1.0
[LeftArm]
186	105.923996	-5.24600029	-22.32099915	32.58838654	22.55025482	-31.07961845	1.0
187	105.923996	-5.24600029	-22.32099915	29.74874687	32.81919098	-46.22331619	1.0
188	105.923996	-5.24600029	-22.32099915	31.66551399	35.85729599	-52.92605591	1.0
189	105.923996	-5.24600029	-22.32099915	36.43717194	33.61587906	-53.81875992	1.0
[LeftForeArm]
186	278.414978	-0.0009999999311	0	9.155357111e-05	-95.90074921	-0.0003051765088	1.0
187	278.414978	-0.0009999999311	0	-0.0004275272659	-88.10944366	0.000197303656	1.0
188	278.414978	-0.0009999999311	0	-0.0002688790555	-89.14904785	0.0001483911474	1.0
189	278.414978	-0.0009999999311	0	7.629369065e-05	-90.21439362	-0.001068114885	1.0
[LeftHand]
186	283.2879944	0	0	35.42528915	-27.22258949	-16.84676361	1.0
187	283.2879944	0	0	39.79404831	-33.68510056	-29.63733673	1.0
188	283.2879944	0	0	46.05378342	-31.49207306	-37.84836197	1.0
189	283.2879944	0	0	46.5098114	-31.23033142	-35.53583908	1.0
[LeftHandThumb1]
186	24.6609993	-15.75	26.8239994	-1.227203846	-6.957594395	8.096197128	1.0
187	24.6609993	-15.75	26.8239994	-1.421132922	-8.197480202	8.603222847	1.0
188	24.6609993	-15.75	26.8239994	-1.454382181	-8.395507813	8.68585968	1.0
189	24.6609993	-15.75	26.8239994	-1.438161254	-8.299565315	8.645736694	1.0
[LeftHandThumb2]
186	32.29800034	-18.64699936	18.64699936	7.688694954	39.77820206	-17.87333107	1.0
187	32.29800034	-18.64699936	18.64699936	0.002404176863	47.38462067	-28.83560371	1.0
188	32.29800034	-18.64699936	18.64699936	-1.654753447	48.43058014	-30.91519547	1.0
189	32.29800034	-18.64699936	18.64699936	-0.8321207762	47.93279266	-29.89402962	1.0
[LeftHandThumb3]
186	26.52600098	-15.31499958	15.31499958	0.5819678307	38.98096848	19.73659706	1.0
187	26.52600098	-15.31499958	15.31499958	6.799911499	49.04470062	23.84732628	1.0
188	26.52600098	-15.31499958	15.31499958	8.071996689	50.60360336	24.81271744	1.0
189	26.52600098	-15.31499958	15.31499958	7.403889179	49.86564636	24.29810333	1.0
[LeftHandThumb4]
186	19.54599953	-11.28499985	11.28499985	0	0	0	1.0
187	19.54599953	-11.28499985	11.28499985	0	0	0	1.0
188	19.54599953	-11.28499985	11.28499985	0	0	0	1.0
189	19.54599953	-11.28499985	11.28499985	0	0	0	1.0
[LeftHandIndex1]
186	91.09299469	-5.170999527	22.60099792	-0.2952167392	7.586828709	-58.77873611	1.0
187	91.09299469	-5.170999527	22.60099792	-1.576408863	9.149741173	-77.26573944	1.0
188	91.09299469	-5.170999527	22.60099792	-1.785546422	9.343900681	-80.27487183	1.0
189	91.09299469	-5.170999527	22.60099792	-1.68740046	9.253864288	-78.83441925	1.0
[LeftHandIndex2]
186	36.76399994	0	0	-3.954590559	5.517677307	-71.23910522	1.0
187	36.76399994	0	0	-4.980910301	5.763906956	-81.65190887	1.0
188	36.76399994	0	0	-5.149113178	5.785993576	-83.32372284	1.0
189	36.76399994	0	0	-5.067495823	5.775892258	-82.51328278	1.0
[LeftHandIndex3]
186	28.83100128	0	0	-5.154495716	5.786603928	-83.3769989	1.0
187	28.83100128	0	0	-6.333703995	5.803060532	-95.01639557	1.0
188	28.83100128	0	0	-6.522249222	5.783493996	-96.88405609	1.0
189	28.83100128	0	0	-6.430902481	5.793740749	-95.97862244	1.0
[LeftHandIndex4]
186	23.92700005	0	0	0	0	0	1.0
187	23.92700005	0	0	0	0	0	1.0
188	23.92700005	0	0	0	0	0	1.0
189	23.92700005	0	0	0	0	0	1.0
[LeftHandMiddle1]
186	95.33399963	0	0	-5.302261353	5.268312931	-63.49599075	1.0
187	95.33399963	0	0	-6.388001442	5.28196907	-73.33343506	1.0
188	95.33399963	0	0	-6.561548233	5.266888618	-74.912117	1.0
189	95.33399963	0	0	-6.477490425	5.274776936	-74.14685822	1.0
[LeftHandMiddle2]
186	36.98199844	0	0	-6.145862579	5.816408634	-93.161026	1.0
187	36.98199844	0	0	-7.457318306	5.59265995	-106.2973938	1.0
188	36.98199844	0	0	-7.661942005	5.529017925	-108.4089432	1.0
189	36.98199844	0	0	-7.563255787	5.560725689	-107.3876724	1.0
[LeftHandMiddle3]
186	29.50900078	0	0	-2.902392626	5.041064739	-59.84103394	1.0
187	29.50900078	0	0	-3.93735218	5.511809349	-71.05966187	1.0
188	29.50900078	0	0	-4.111323357	5.568196297	-72.86142731	1.0
189	29.50900078	0	0	-4.026765347	5.541552544	-71.98788452	1.0
[LeftHandMiddle4]
186	28.3390007	0	0	0	0	0	1.0
187	28.3390007	0	0	0	0	0	1.0
188	28.3390007	0	0	0	0	0	1.0
189	28.3390007	0	0	0	0	0	1.0
[LeftHandRing1]
186	91.04499817	-0.4390000105	-18.65100098	-6.455985069	2.941287756	-73.93789673	1.0
187	91.04499817	-0.4390000105	-18.65100098	-7.036900997	2.549508333	-79.2436142	1.0
188	91.04499817	-0.4390000105	-18.65100098	-7.129153728	2.481641769	-80.09441376	1.0
189	91.04499817	-0.4390000105	-18.65100098	-7.084391117	2.514711618	-79.68203735	1.0
[LeftHandRing2]
186	31.54000092	0	0	-4.890911102	5.750054359	-80.75494385	1.0
187	31.54000092	0	0	-6.127027035	5.817428112	-92.97512054	1.0
188	31.54000092	0	0	-6.325584412	5.803744316	-94.93621826	1.0
189	31.54000092	0	0	-6.229409218	5.811206341	-93.98553467	1.0
[LeftHandRing3]
186	29.37700081	0	0	-2.099961042	4.481479645	-50.19633484	1.0
187	29.37700081	0	0	-2.823152304	4.994360447	-58.93521118	1.0
188	29.37700081	0	0	-2.946243525	5.06618309	-60.338871	1.0
189	29.37700081	0	0	-2.886361599	5.031746387	-59.6584053	1.0
[LeftHandRing4]
186	26.47500038	0	0	0	0	0	1.0
187	26.47500038	0	0	0	0	0	1.0
188	26.47500038	0	0	0	0	0	1.0
189	26.47500038	0	0	0	0	0	1.0
[LeftHandPinky1]
186	80.77799988	-4.887000084	-38.06099701	-14.07052517	5.564268112	-78.36767578	1.0
187	80.77799988	-4.887000084	-38.06099701	-15.59357262	5.269454479	-84.37113953	1.0
188	80.77799988	-4.887000084	-38.06099701	-15.83628178	5.215549946	-85.33397675	1.0
189	80.77799988	-4.887000084	-38.06099701	-15.71864605	5.241650105	-84.86725616	1.0
[LeftHandPinky2]
186	36	0	0	-2.331978559	4.664474487	-53.1059494	1.0
187	36	0	0	-2.453406572	4.752916336	-54.58523941	1.0
188	36	0	0	-2.47312355	4.766819	-54.82268143	1.0
189	36	0	0	-2.463561535	4.760085583	-54.70758438	1.0
[LeftHandPinky3]
186	21.14200211	0	0	-4.149194241	5.579702377	-73.25136566	1.0
187	21.14200211	0	0	-4.858656406	5.744731903	-80.43264008	1.0
188	21.14200211	0	0	-4.974229336	5.762939453	-81.58546448	1.0
189	21.14200211	0	0	-4.918161392	5.754385948	-81.02663422	1.0
[LeftHandPinky4]
186	19.75699997	0	0	0	0	0	1.0
187	19.75699997	0	0	0	0	0	1.0
188	19.75699997	0	0	0	0	0	1.0
189	19.75699997	0	0	0	0	0	1.0
[RightShoulder]
186	-45.70000076	109.4620056	-26.28000069	2.386420965	1.359866261	-4.841130733	1.0
187	-45.70000076	109.4620056	-26.28000069	2.380508184	5.833993912	-1.780958295	1.0
188	-45.70000076	109.4620056	-26.28000069	2.209406376	10.11656284	-1.63023746	1.0
189	-45.70000076	109.4620056	-26.28000069	2.003940582	11.22310829	-3.387808323	1.0
[RightArm]
186	-105.9280014	-5.248000145	-22.32099915	59.50709915	-10.33748341	28.92090416	1.0
187	-105.9280014	-5.248000145	-22.32099915	59.49488068	-15.66005421	38.51594543	1.0
188	-105.9280014	-5.248000145	-22.32099915	56.13106155	-21.80637932	44.1212616	1.0
189	-105.9280014	-5.248000145	-22.32099915	50.68486023	-25.531353	49.96091461	1.0
[RightForeArm]
186	-278.414978	0	0	0.0003485809139	86.73095703	0.0004108939902	1.0
187	-278.414978	0	0	-9.274267359e-05	86.18861389	-3.755522266e-05	1.0
188	-278.414978	0	0	7.963857206e-05	85.93741608	0.0001311828237	1.0
189	-278.414978	0	0	-7.608781016e-05	83.93374634	-0.0001238199184	1.0
[RightHand]
186	-283.2879944	0	0.0009999999311	34.71337509	35.56413651	15.89661312	1.0
187	-283.2879944	0	0.0009999999311	30.0688076	32.49638367	19.62406731	1.0
188	-283.2879944	0	0.0009999999311	29.97496223	36.6131134	19.14482498	1.0
189	-283.2879944	0	0.0009999999311	36.96329498	38.68888474	25.405159	1.0
[RightHandPinky1]
186	-80.76699829	-4.885000229	-38.06000137	-14.78962994	-3.14474678	89.38519287	1.0
187	-80.76699829	-4.885000229	-38.06000137	-14.55191994	-3.939024687	84.85223389	1.0
188	-80.76699829	-4.885000229	-38.06000137	-14.49648571	-4.113388062	83.83249664	1.0
189	-80.76699829	-4.885000229	-38.06000137	-14.51929951	-4.041607857	84.25370026	1.0
[RightHandPinky2]
186	-36	0	0.0009999999311	-1.878327966	-3.725283861	53.52293777	1.0
187	-36	0	0.0009999999311	-1.950607181	-3.777579546	54.62737274	1.0
188	-36	0	0.0009999999311	-1.966977358	-3.789144516	54.87554169	1.0
189	-36	0	0.0009999999311	-1.960203528	-3.784370899	54.77305222	1.0
[RightHandPinky3]
186	-21.14200211	0	0	-3.079675913	-4.363622189	70.41257477	1.0
187	-21.14200211	0	0	-3.814069986	-4.55813694	79.8335495	1.0
188	-21.14200211	0	0	-3.982823372	-4.585095406	81.95065308	1.0
189	-21.14200211	0	0	-3.913003922	-4.574711323	81.07629395	1.0
[RightHandPinky4]
186	-19.75699997	0	0	0	0	0	1.0
187	-19.75699997	0	0	0	0	0	1.0
188	-19.75699997	0	0	0	0	0	1.0
189	-19.75699997	0	0	0	0	0	1.0
[RightHandRing1]
186	-91.03599548	-0.4390000105	-18.65100098	-6.407404423	-1.147780299	83.99771881	1.0
187	-91.03599548	-0.4390000105	-18.65100098	-6.029672623	-1.301256418	79.63581085	1.0
188	-91.03599548	-0.4390000105	-18.65100098	-5.943601608	-1.331747055	78.65570068	1.0
189	-91.03599548	-0.4390000105	-18.65100098	-5.979185104	-1.319341302	79.06047821	1.0
[RightHandRing2]
186	-31.54000092	0	0	-4.720459461	-4.629645824	91.11404419	1.0
187	-31.54000092	0	0	-4.936727047	-4.620407581	93.79585266	1.0
188	-31.54000092	0	0	-4.98525095	-4.61694479	94.3983078	1.0
189	-31.54000092	0	0	-4.96518755	-4.618422508	94.14950562	1.0
[RightHandRing3]
186	-29.37700081	0	0	-1.827034235	-3.686891079	52.70969009	1.0
187	-29.37700081	0	0	-2.245171785	-3.969994783	58.9659729	1.0
188	-29.37700081	0	0	-2.34323287	-4.027250767	60.37205124	1.0
189	-29.37700081	0	0	-2.302582026	-4.003884792	59.79133987	1.0
[RightHandRing4]
186	-26.47500038	0	0	0	0	0	1.0
187	-26.47500038	0	0	0	0	0	1.0
188	-26.47500038	0	0	0	0	0	1.0
189	-26.47500038	0	0	0	0	0	1.0
[RightHandMiddle1]
186	-95.32500458	0	0	-5.490180016	-4.098510265	73.57289124	1.0
187	-95.32500458	0	0	-5.490199089	-4.098487377	73.57289886	1.0
188	-95.32500458	0	0	-5.490178108	-4.098500729	73.57289886	1.0
189	-95.32500458	0	0	-5.490177631	-4.098505497	73.57289886	1.0
[RightHandMiddle2]
186	-36.98199844	0	0	-6.026573181	-4.415487766	107.5651169	1.0
187	-36.98199844	0	0	-6.026566029	-4.415492058	107.5651169	1.0
188	-36.98199844	0	0	-6.026572704	-4.415489674	107.5651016	1.0
189	-36.98199844	0	0	-6.02657032	-4.415490627	107.5651245	1.0
[RightHandMiddle3]
186	-29.50900078	0	0	-2.40243578	-4.062278748	61.21162415	1.0
187	-29.50900078	0	0	-3.112594604	-4.377176762	70.84473419	1.0
188	-29.50900078	0	0	-3.27879405	-4.431262493	73.00985718	1.0
189	-29.50900078	0	0	-3.209892988	-4.409668922	72.11565399	1.0
[RightHandMiddle4]
186	-28.3390007	0	0.0009999999311	0	0	0	1.0
187	-28.3390007	0	0.0009999999311	0	0	0	1.0
188	-28.3390007	0	0.0009999999311	0	0	0	1.0
189	-28.3390007	0	0.0009999999311	0	0	0	1.0
[RightHandIndex1]
186	-91.08300018	-5.167999744	22.60099792	0.65071702	-7.171965122	67.8656311	1.0
187	-91.08300018	-5.167999744	22.60099792	-0.4494345486	-7.982553482	77.09371185	1.0
188	-91.08300018	-5.167999744	22.60099792	-0.6945461035	-8.146326065	79.16989899	1.0
189	-91.08300018	-5.167999744	22.60099792	-0.5939581394	-8.079357147	78.31237793	1.0
[RightHandIndex2]
186	-36.76399994	0	0	-4.042257309	-4.59308815	82.6934433	1.0
187	-36.76399994	0	0	-4.042238712	-4.593068123	82.6934433	1.0
188	-36.76399994	0	0	-4.042230129	-4.593085766	82.6934433	1.0
189	-36.76399994	0	0	-4.04224968	-4.593079567	82.6934433	1.0
[RightHandIndex3]
186	-28.83100128	0	0	-5.126281261	-4.603964806	96.15283203	1.0
187	-28.83100128	0	0	-5.126270294	-4.603957176	96.15283203	1.0
188	-28.83100128	0	0	-5.126283646	-4.603959084	96.15280914	1.0
189	-28.83100128	0	0	-5.126282692	-4.603984833	96.15283203	1.0
[RightHandIndex4]
186	-23.92700005	0	0	0	0	0	1.0
187	-23.92700005	0	0	0	0	0	1.0
188	-23.92700005	0	0	0	0	0	1.0
189	-23.92700005	0	0	0	0	0	1.0
[RightHandThumb1]
186	-24.64799881	-15.72700024	26.82600021	-2.388241768	10.16858196	-8.28703022	1.0
187	-24.64799881	-15.72700024	26.82600021	-2.388236523	10.16858101	-8.287031174	1.0
188	-24.64799881	-15.72700024	26.82600021	-2.388241529	10.16858768	-8.287028313	1.0
189	-24.64799881	-15.72700024	26.82600021	-2.388240576	10.16858959	-8.287032127	1.0
[RightHandThumb2]
186	-32.29800034	-18.64699936	18.64699936	3.761466265	-45.92214584	17.19208527	1.0
187	-32.29800034	-18.64699936	18.64699936	-1.199920893	-49.07339478	28.51742935	1.0
188	-32.29800034	-18.64699936	18.64699936	-2.595150709	-49.57542038	31.25688171	1.0
189	-32.29800034	-18.64699936	18.64699936	-2.004905224	-49.38098907	30.11705399	1.0
[RightHandThumb3]
186	-26.52600098	-15.31399918	15.31399918	9.390638351	-46.99879456	-26.4086895	1.0
187	-26.52600098	-15.31399918	15.31399918	12.95732594	-54.13864517	-27.49779892	1.0
188	-26.52600098	-15.31399918	15.31399918	14.1107378	-55.64524078	-28.12297058	1.0
189	-26.52600098	-15.31399918	15.31399918	13.47660542	-55.08190918	-27.72162628	1.0
[RightHandThumb4]
186	-19.54599953	-11.28499985	11.28499985	0	0	0	1.0
187	-19.54599953	-11.28499985	11.28499985	0	0	0	1.0
188	-19.54599953	-11.28499985	11.28499985	0	0	0	1.0
189	-19.54599953	-11.28499985	11.28499985	0	0	0	1.0
[LeftUpLeg]
186	82.07800293	-67.51699829	-15.99599934	-21.99351883	11.59141254	-0.2782115638	1.0
187	82.07800293	-67.51699829	-15.99599934	-31.93319893	14.86245728	1.850539088	1.0
188	82.07800293	-67.51699829	-15.99599934	-42.0412941	19.84966469	5.543662071	1.0
189	82.07800293	-67.51699829	-15.99599934	-49.10223389	23.4138298	12.08433914	1.0
[LeftLeg]
186	0	-443.7049866	2.845999956	41.75071335	6.408315659	7.537292004	1.0
187	0	-443.7049866	2.845999956	57.25996017	3.408396244	6.956021309	1.0
188	0	-443.7049866	2.845999956	71.11836243	-0.5109216571	-1.565432906	1.0
189	0	-443.7049866	2.845999956	82.22962189	-0.517056942	-6.139816284	1.0
[LeftFoot]
186	0	-444.2789917	-29.8219986	-16.50963402	15.46010208	-4.042915821	1.0
187	0	-444.2789917	-29.8219986	-15.80471039	7.762346745	-7.036356449	1.0
188	0	-444.2789917	-29.8219986	-4.687961578	0.4051398635	-17.93240738	1.0
189	0	-444.2789917	-29.8219986	-3.810474396	-1.671717644	-20.28930092	1.0
[LeftToeBase]
186	0	-87.28699493	107.1060028	-5.593185902	-0.1122351661	-1.367815256	1.0
187	0	-87.28699493	107.1060028	-14.17905617	-1.69480445e-05	2.378849786e-06	1.0
188	0	-87.28699493	107.1060028	-22.98019409	2.946732283	9.475897789	1.0
189	0	-87.28699493	107.1060028	-11.02470684	-8.206412531e-06	-1.565545517e-06	1.0
[RightUpLeg]
186	-82.07800293	-67.51699829	-15.99599934	-11.84003162	-1.137019992	-5.839295864	1.0
187	-82.07800293	-67.51699829	-15.99599934	-21.98679924	1.09171164	-5.468416214	1.0
188	-82.07800293	-67.51699829	-15.99599934	-30.89209938	0.437672019	-6.25906992	1.0
189	-82.07800293	-67.51699829	-15.99599934	-33.26240158	-4.789319515	-4.883027077	1.0
[RightLeg]
186	0	-443.7049866	2.861999989	23.75281143	-7.476215363	-4.456260204	1.0
187	0	-443.7049866	2.861999989	40.09571838	-6.67623806	-6.619456291	1.0
188	0	-443.7049866	2.861999989	52.43209457	-5.558429718	-8.000574112	1.0
189	0	-443.7049866	2.861999989	56.23758316	-4.626505375	-7.614221096	1.0
[RightFoot]
186	0	-444.2770081	-29.83799934	-10.02811146	-12.36647606	13.24672604	1.0
187	0	-444.2770081	-29.83799934	-17.67061043	-8.903290749	19.03385353	1.0
188	0	-444.2770081	-29.83799934	-21.01543236	-4.608289242	18.21522522	1.0
189	0	-444.2770081	-29.83799934	-23.04161644	-2.527948618	17.87739182	1.0
[RightToeBase]
186	0	-87.28699493	107.1060028	-3.7068367	-5.309948392e-06	1.057062263e-06	1.0
187	0	-87.28699493	107.1060028	0.2281218916	-0.003357917536	0.3953379393	1.0
188	0	-87.28699493	107.1060028	-0.6710196137	0.0009618334589	0.08879975975	1.0
189	0	-87.28699493	107.1060028	0.1006838009	-0.0006959343445	0.1743948907	1.0
[EndOfFile]
